<svg xmlns="http://www.w3.org/2000/svg" x="0px" y="0px" width="100" height="100" viewBox="0 0 50 50">
<path fill="#fff" d="M 21.970703 2 A 1.0001 1.0001 0 0 0 21.580078 2.0917969 L 8.5800781 8.0917969 A 1.0001 1.0001 0 0 0 8 8.9980469 L 7.9785156 23.310547 A 1.0001 1.0001 0 0 0 7.9785156 23.3125 L 7.9785156 23.34375 A 1.0001 1.0001 0 0 0 8.4570312 24.195312 C 10.066373 25.962401 13.136097 28.725257 15.957031 31.179688 C 18.85442 33.700639 21.380859 35.808594 21.380859 35.808594 A 1.0001 1.0001 0 0 0 23.021484 35.037109 L 23 28.048828 C 23 27.23544 23.22882 26.784209 23.546875 26.484375 C 23.86493 26.184541 24.342389 26 25 26 C 25.823752 26 26.25485 26.215059 26.535156 26.515625 C 26.815463 26.816191 27 27.297121 27 28.03125 L 27 38.458984 A 1.0001 1.0001 0 0 0 27.453125 39.296875 C 30.780985 41.472784 35.974159 44.218634 40.654297 45.939453 A 1.0001 1.0001 0 0 0 42 45.001953 L 42 24.529297 C 42 22.20249 41.207244 19.826921 39.537109 18.013672 C 37.868057 16.201598 35.316107 15.001553 32.029297 15 L 32.023438 15 C 28.999818 14.982722 25.44112 16.188066 23 18.361328 L 23 3 A 1.0001 1.0001 0 0 0 21.970703 2 z M 21 4.5625 L 21 21.048828 A 1.0001 1.0001 0 0 0 22.863281 21.552734 C 24.371627 18.96796 28.850979 16.980359 32.017578 17 A 1.0001 1.0001 0 0 0 32.023438 17 C 34.840542 17 36.775291 17.965436 38.066406 19.367188 C 39.357482 20.768939 40 22.658104 40 24.529297 L 40 43.464844 C 36.038819 41.874971 31.868182 39.713431 29 37.880859 L 29 28.03125 C 29 26.946379 28.706991 25.910575 27.998047 25.150391 C 27.289103 24.390207 26.219248 24 25 24 C 23.951611 24 22.929273 24.317131 22.173828 25.029297 C 21.418383 25.741463 21 26.814216 21 28.048828 A 1.0001 1.0001 0 0 0 21 28.050781 L 21.015625 32.867188 C 20.088345 32.087426 19.2696 31.412089 17.269531 29.671875 C 14.479492 27.244326 11.4198 24.466257 9.9785156 22.892578 L 9.9980469 9.640625 L 21 4.5625 z M 9.0058594 29.277344 A 1.0001 1.0001 0 0 0 7.9785156 30.275391 L 7.9785156 47 A 1.0001 1.0001 0 0 0 8.9785156 48 L 22 48 A 1.0001 1.0001 0 0 0 23 47 L 23 40.400391 A 1.0001 1.0001 0 0 0 22.542969 39.560547 C 21.962782 39.185553 19.237869 37.150212 16.480469 35.017578 C 13.723068 32.884944 10.814025 30.573114 9.6425781 29.529297 A 1.0001 1.0001 0 0 0 9.0058594 29.277344 z M 9.9785156 32.361328 C 11.466281 33.594294 13.149273 34.970329 15.255859 36.599609 C 17.823237 38.585276 19.964997 40.19241 21 40.898438 L 21 46 L 9.9785156 46 L 9.9785156 32.361328 z M 27.992188 42.228516 A 1.0001 1.0001 0 0 0 27 43.228516 L 27 47 A 1.0001 1.0001 0 0 0 28 48 L 36 48 A 1.0001 1.0001 0 0 0 36.330078 46.056641 C 33.454882 45.054252 31.23963 43.831861 28.472656 42.347656 A 1.0001 1.0001 0 0 0 27.992188 42.228516 z M 29 44.878906 C 29.713246 45.25931 30.435339 45.648706 31.140625 46 L 29 46 L 29 44.878906 z"></path>
</svg>