<svg fill="#A9A9A9" height="200px" width="200px" version="1.1" id="Layer_1" xmlns="http://www.w3.org/2000/svg" xmlns:xlink="http://www.w3.org/1999/xlink" viewBox="0 0 512 512" xml:space="preserve"><g id="SVGRepo_bgCarrier" stroke-width="0"></g><g id="SVGRepo_tracerCarrier" stroke-linecap="round" stroke-linejoin="round"></g><g id="SVGRepo_iconCarrier"> <g> <g> <path d="M490.667,0H21.333C9.557,0,0,9.557,0,21.333v469.333C0,502.443,9.557,512,21.333,512h469.333 c11.797,0,21.333-9.557,21.333-21.333V21.333C512,9.557,502.464,0,490.667,0z M234.667,405.333h-128 c-11.776,0-21.333-9.557-21.333-21.333s9.557-21.333,21.333-21.333h128c11.776,0,21.333,9.557,21.333,21.333 S246.443,405.333,234.667,405.333z M405.333,320H106.667c-11.776,0-21.333-9.557-21.333-21.333s9.557-21.333,21.333-21.333 h298.667c11.776,0,21.333,9.557,21.333,21.333S417.109,320,405.333,320z M405.333,234.667H106.667 c-11.776,0-21.333-9.557-21.333-21.333S94.891,192,106.667,192h298.667c11.776,0,21.333,9.557,21.333,21.333 S417.109,234.667,405.333,234.667z M405.333,149.333H106.667c-11.776,0-21.333-9.557-21.333-21.333s9.557-21.333,21.333-21.333 h298.667c11.776,0,21.333,9.557,21.333,21.333S417.109,149.333,405.333,149.333z"></path> </g> </g> </g></svg>